<svg width="1200" height="900" viewBox="0 0 1200 900" fill="none" xmlns="http://www.w3.org/2000/svg">
  <rect width="1200" height="900" fill="#EFE4D6"/>
  <rect x="52" y="52" width="1096" height="796" rx="40" fill="#FFF8F1"/>
  <path d="M192 602C362 500 488 460 600 460C720 460 836 500 1008 602V764H192V602Z" fill="#8BA38B"/>
  <path d="M474 228C474 345 527 417 599 417C671 417 724 345 724 228H474Z" fill="#B96B4D"/>
  <path d="M565 418H633V620C633 642 615 660 593 660H605C583 660 565 642 565 620V418Z" fill="#D2C1AD"/>
  <rect x="725" y="278" width="140" height="282" rx="70" fill="#355847" fill-opacity="0.24"/>
  <circle cx="795" cy="242" r="54" fill="#6B845D"/>
  <text x="134" y="174" fill="#355847" font-family="Arial, sans-serif" font-size="42" font-weight="700">Wine Region Placeholder</text>
</svg>